<svg xmlns="http://www.w3.org/2000/svg" viewBox="0 0 70 70">
    <defs>
        <radialGradient id="hexInGrad" r="0.4">
            <stop stop-color="#384344" offset="0"/>
            <stop stop-color="#222828" offset="1"/>
        </radialGradient>
        <radialGradient id="hexOutGrad" r="0.5">
            <stop stop-color="#c7c7c7" offset="0.6"/>
            <stop stop-color="#718897" offset="1"/>
        </radialGradient>
        <linearGradient id="bracketLeftGrad" x1="0.7" y1="0" x2="0.5" y2="1">
            <stop stop-color="#4b9bd2" offset="0"/>
            <stop stop-color="#6c94ce" offset="0.5"/>
            <stop stop-color="#a19ae4" offset="1"/>
        </linearGradient>
        <linearGradient id="bracketRightGrad" x1="0.7" y1="0" x2="0.5" y2="1">
            <stop stop-color="#66abd9" offset="0"/>
            <stop stop-color="#61d4df" offset="0.5"/>
            <stop stop-color="#9cc5e2" offset="1"/>
        </linearGradient>
        <style>
            .hexagon {
                fill: url(#hexInGrad);
                stroke: url(#hexOutGrad);
                stroke-width: 3.5;
            }
            
            .bracketLeft {
                fill-opacity:0;
                stroke: url(#bracketLeftGrad);
                stroke-width: 5.5;
            }
            
            .bracketRight {
                fill-opacity:0;
                stroke: url(#bracketRightGrad);
                stroke-width: 5.5;
            }
        </style>
    </defs>
    <path class="hexagon" stroke-opacity="0" d="M35,4 8,20 8,50 35,66 62,50 62,20 z" />
    <path class="hexagon" d="M35,4 8,20 8,50 M8,50 35,66 62,50 M62,50 62,20 35,4" />
    <path class="hexagon" stroke-linejoin="round" d="M62,20 35,4 8,20 M8,20 8,50 35,66 M35,66 62,50 62,20" />
    <path class="bracketLeft" d="M29,20 28,20 C23,20 24,20 24,30 24,34 21,35 18,35 M29,50 29,50 C23,50 24,50 24,40 24,36 21,35 18,35" />
    <path class="bracketRight" d="M41,20 42,20 C47,20 46,20 46,30 46,34 49,35 52,35 M41,50 42,50 C47,50 46,50 46,40 46,36 49,35 52,35" />
</svg>
